<?xml version="1.0" encoding="UTF-8"?>
<svg id="Layer_1" data-name="Layer 1" xmlns="http://www.w3.org/2000/svg" version="1.1" viewBox="0 0 576 395.71">
  <defs>
    <style>
      .cls-1 {
        fill: #039f77;
        fill-rule: evenodd;
      }

      .cls-1, .cls-2, .cls-3 {
        stroke-width: 0px;
      }

      .cls-2 {
        fill: #111828;
      }

      .cls-3 {
        fill: none;
      }
    </style>
  </defs>
  <path class="cls-1" d="M206.57,79.3c-92.64.16-167.69,75.31-167.69,167.99,0,28.51,7.1,55.36,19.63,78.88l13.49-7.17c-11.39-21.38-17.85-45.79-17.85-71.71,0-84.25,68.23-152.57,152.45-152.72l-.03-15.27Z"/>
  <path class="cls-1" d="M133.27,364.89c-39.12-24.53-65.12-68.03-65.12-117.6,0-76.27,61.55-138.16,137.68-138.72l.1,15.27c-67.75.49-122.52,55.57-122.52,123.44,0,44.11,23.14,82.82,57.95,104.65l-8.09,12.95Z"/>
  <path class="cls-1" d="M206.48,137.85c-60.27.21-109.07,49.13-109.07,109.45,0,55.93,41.95,102.06,96.11,108.64l1.86-15.16c-46.6-5.66-82.7-45.35-82.7-93.48,0-51.9,41.98-94,93.85-94.17l-.05-15.27Z"/>
  <path class="cls-1" d="M206.47,167.12c-44.1.21-79.79,36.03-79.79,80.18s35.9,80.18,80.18,80.18c13.61,0,26.42-3.39,37.65-9.37l-7.17-13.49c-9.09,4.84-19.46,7.59-30.48,7.59-35.85,0-64.9-29.06-64.9-64.9s28.89-64.73,64.59-64.9l-.07-15.27Z"/>
  <path class="cls-1" d="M206.82,196.39c-28.09.02-50.86,22.81-50.86,50.91s22.79,50.91,50.9,50.91c16.93,0,31.94-8.27,41.19-20.99l-12.35-8.98c-6.48,8.9-16.98,14.69-28.84,14.69-19.68,0-35.63-15.96-35.63-35.63s15.93-35.61,35.59-35.63v-15.27Z"/>
  <path class="cls-2" d="M246.02,108.88c-6.51,0-11.82-4.77-11.82-11.82s5.31-11.82,11.82-11.82c4.57,0,8.53,2.32,10.47,6.21l11.89-5.57c-3.93-8.06-12.32-12.93-22.36-12.93-14.17,0-24.98,9.67-24.98,24.11s10.81,24.11,24.98,24.11c10.04,0,18.43-4.87,22.36-12.93l-11.89-5.57c-1.94,3.89-5.91,6.21-10.47,6.21M279.4,79.87c3.96,0,7.22-3.29,7.22-7.29s-3.25-7.22-7.22-7.22-7.25,3.29-7.25,7.22,3.25,7.29,7.25,7.29M273.08,120.57h12.59v-36.93h-12.59v36.93ZM290.99,83.63v36.93h12.59v-18.46c0-5.27,3.42-8.46,11.35-8.46v-10.61c-5.44,0-9.2,1.41-11.35,4.7l-.57-4.09h-12.02ZM335.28,110.83c-4.33,0-7.89-3.22-7.89-8.73s3.56-8.73,7.89-8.73c3.09,0,5.74,1.61,6.98,5.11l11.52-4.6c-2.95-6.75-10.28-10.84-18.5-10.84-10.95,0-20.45,6.82-20.45,19.07s9.5,19.07,20.45,19.07c8.22,0,15.55-4.1,18.5-10.85l-11.52-4.6c-1.24,3.49-3.9,5.11-6.98,5.11M369.32,83.63h-12.59v18.47c0,11.89,3.59,19.1,14.2,19.1,5.47,0,9.37-1.88,11.15-5.04l.57,4.4h12.02v-36.93h-12.59v18.47c0,5.27-2.32,8.46-6.75,8.46s-6.01-3.05-6.01-8.46v-18.47ZM399.98,120.57h12.59v-50.36h-12.59v50.36ZM433.09,82.99c-9.5,0-16.92,7.69-16.92,19.11s7.42,19.1,16.92,19.1c5.44,0,9.64-1.72,11.42-5.04l.57,4.4h12.02v-36.93h-12.02l-.57,4.4c-1.78-3.16-5.98-5.04-11.42-5.04M436.62,110.56c-4.33,0-7.86-3.22-7.86-8.46s3.53-8.46,7.86-8.46,7.89,3.22,7.89,8.46-3.52,8.46-7.89,8.46M461.72,83.63v36.93h12.59v-18.46c0-5.27,3.43-8.46,11.35-8.46v-10.61c-5.44,0-9.2,1.41-11.35,4.7l-.57-4.09h-12.02ZM243.6,140.35h-21.22v47h21.22c14.13,0,23.84-9.63,23.84-23.5s-9.7-23.5-23.84-23.5M241.92,176.75h-6.11v-25.79h6.11c6.65,0,12.09,4.8,12.09,12.89s-5.44,12.89-12.09,12.89M271.5,150.42v36.93h12.59v-18.46c0-5.27,3.42-8.46,11.35-8.46v-10.61c-5.44,0-9.2,1.41-11.35,4.7l-.57-4.1h-12.02ZM306,146.66c3.96,0,7.22-3.29,7.22-7.29s-3.26-7.22-7.22-7.22-7.25,3.29-7.25,7.22,3.26,7.29,7.25,7.29M299.69,187.36h12.59v-36.93h-12.59v36.93ZM345.43,150.42l-7.96,25.76-7.99-25.76h-13.43l12.15,36.93h18.46l12.19-36.93h-13.43ZM378.63,149.79c-10.95,0-20.45,6.85-20.45,19.1s9.5,19.11,20.45,19.11c7.32,0,14.13-3.23,17.73-9.1l-10.71-5.17c-1.54,2.82-3.79,4.43-7.01,4.43-3.39,0-6.35-2.15-7.42-5.88h27.33c1.18-14.47-7.69-22.5-19.91-22.5M378.63,159.62c3.86,0,6.55,2.15,7.49,5.87h-14.98c.97-3.73,3.63-5.87,7.49-5.87M222.38,251.37h13.43v-47.01h-13.43v47.01ZM267.32,251.37h12.56v-18.46c0-11.89-3.59-19.1-14.2-19.1-5.47,0-9.37,1.88-11.15,5.04l-.57-4.4h-12.02v36.93h12.59v-18.46c0-5.27,2.32-8.46,6.78-8.46s6.01,3.02,6.01,8.46v18.46ZM291.53,210.67c3.96,0,7.22-3.29,7.22-7.29s-3.26-7.22-7.22-7.22-7.25,3.29-7.25,7.22,3.26,7.29,7.25,7.29M285.21,251.37h12.59v-36.93h-12.59v36.93ZM307.06,206.24v8.19h-4.47v9.77h4.47v13.2c0,9.77,3.62,14.57,13.5,14.57,1.88,0,5.34-.24,7.32-.54v-10.27c-2.15.36-4.16.4-5.74-.17-1.68-.51-2.52-1.82-2.52-4.06v-12.73h8.26v-9.77h-8.26v-8.19h-12.56ZM338.94,210.67c3.96,0,7.22-3.29,7.22-7.29s-3.26-7.22-7.22-7.22-7.25,3.29-7.25,7.22,3.26,7.29,7.25,7.29M332.63,251.37h12.59v-36.93h-12.59v36.93ZM366.41,213.8c-9.5,0-16.92,7.69-16.92,19.1s7.42,19.1,16.92,19.1c5.44,0,9.64-1.71,11.42-5.04l.57,4.4h12.02v-36.93h-12.02l-.57,4.4c-1.78-3.16-5.98-5.04-11.42-5.04M369.94,241.36c-4.33,0-7.86-3.22-7.86-8.46s3.53-8.46,7.86-8.46,7.89,3.22,7.89,8.46-3.52,8.46-7.89,8.46M398.84,206.24v8.19h-4.46v9.77h4.46v13.2c0,9.77,3.63,14.57,13.5,14.57,1.88,0,5.34-.24,7.32-.54v-10.27c-2.15.36-4.17.4-5.74-.17-1.68-.51-2.52-1.82-2.52-4.06v-12.73h8.26v-9.77h-8.26v-8.19h-12.56ZM431.24,210.67c3.96,0,7.22-3.29,7.22-7.29s-3.26-7.22-7.22-7.22-7.25,3.29-7.25,7.22,3.26,7.29,7.25,7.29M424.93,251.37h12.59v-36.93h-12.59v36.93ZM469.33,214.43l-7.96,25.75-7.99-25.75h-13.43l12.15,36.93h18.47l12.19-36.93h-13.43ZM502.53,213.8c-10.95,0-20.45,6.85-20.45,19.1s9.5,19.1,20.45,19.1c7.32,0,14.13-3.23,17.73-9.1l-10.71-5.17c-1.55,2.82-3.79,4.43-7.02,4.43-3.39,0-6.35-2.15-7.42-5.88h27.33c1.18-14.47-7.69-22.49-19.91-22.49M502.53,223.63c3.86,0,6.55,2.15,7.49,5.87h-14.97c.98-3.73,3.62-5.87,7.49-5.87"/>
  <rect class="cls-3" x="194.27" y="176.41" width="484.74" height="299.52"/>
</svg>